<?xml version="1.0" standalone="no"?>
<!DOCTYPE svg PUBLIC "-//W3C//DTD SVG 20010904//EN"
 "http://www.w3.org/TR/2001/REC-SVG-20010904/DTD/svg10.dtd">
<svg version="1.0" xmlns="http://www.w3.org/2000/svg"
 width="500.000000pt" height="500.000000pt" viewBox="0 0 500.000000 500.000000"
 preserveAspectRatio="xMidYMid meet">
<metadata>
Created by potrace 1.11, written by Peter Selinger 2001-2013
</metadata>
<g transform="translate(0.000000,500.000000) scale(0.100000,-0.100000)"
fill="#000000" stroke="none">
<path d="M811 4939 c-225 -130 -491 -345 -677 -548 l-134 -146 0 -847 0 -848
115 0 114 0 11 43 c65 258 231 582 414 807 575 707 1542 981 2401 679 156 -54
367 -160 504 -253 l109 -73 467 467 467 467 -129 96 c-70 52 -176 123 -234
156 l-106 61 -1609 0 -1609 0 -104 -61z"/>
<path d="M4210 4155 l-464 -464 117 -118 c195 -197 297 -338 417 -578 62 -123
122 -278 166 -432 3 -10 67 -13 279 -13 l275 0 0 875 0 876 -110 118 c-93 101
-198 201 -211 201 -2 0 -213 -209 -469 -465z"/>
<path d="M1525 3416 c-202 -38 -392 -170 -493 -341 -78 -133 -112 -273 -112
-462 0 -265 71 -465 277 -779 13 -20 12 -21 -34 -13 -188 31 -361 -8 -541
-122 -101 -64 -148 -81 -242 -86 -115 -7 -181 8 -284 67 -47 28 -88 50 -91 50
-3 0 -5 -218 -5 -484 l0 -485 42 -48 c119 -139 244 -264 336 -340 164 -134
318 -245 434 -311 l107 -62 1607 0 1607 0 91 52 c206 116 499 349 660 524
l116 127 0 548 0 548 -40 -14 c-22 -8 -89 -43 -150 -79 -131 -77 -187 -96
-290 -96 -101 0 -166 20 -276 86 -123 73 -189 102 -271 119 -75 16 -200 18
-278 5 -27 -4 -51 -7 -52 -6 -1 1 25 42 58 91 112 169 184 342 214 509 19 111
19 311 1 409 -59 307 -278 528 -590 594 -307 65 -691 -171 -862 -532 l-35 -73
-50 97 c-99 195 -244 342 -424 431 -159 79 -292 103 -430 76z"/>
</g>
</svg>
