<?xml version="1.0" standalone="no"?>
<!DOCTYPE svg PUBLIC "-//W3C//DTD SVG 20010904//EN"
 "http://www.w3.org/TR/2001/REC-SVG-20010904/DTD/svg10.dtd">
<svg version="1.0" xmlns="http://www.w3.org/2000/svg"
 width="1586.000000pt" height="1586.000000pt" viewBox="0 0 1586.000000 1586.000000"
 preserveAspectRatio="xMidYMid meet">
<metadata>
Created by potrace 1.14, written by Peter Selinger 2001-2017
</metadata>
<g transform="translate(0.000000,1586.000000) scale(0.100000,-0.100000)"
fill="#000000" stroke="none">
<path d="M7797 15854 c-1 -1 -76 -5 -167 -8 -91 -4 -185 -9 -210 -11 -25 -2
-84 -6 -131 -10 -47 -3 -96 -7 -107 -10 -12 -2 -54 -6 -94 -9 -40 -4 -84 -8
-97 -11 -13 -2 -49 -7 -80 -11 -31 -3 -63 -7 -71 -9 -13 -2 -39 -6 -135 -21
-68 -11 -146 -24 -235 -41 -60 -11 -310 -65 -360 -78 -30 -7 -77 -19 -105 -25
-27 -7 -63 -16 -80 -21 -16 -5 -64 -18 -105 -30 -191 -52 -498 -153 -655 -214
-322 -126 -538 -221 -790 -350 -110 -56 -224 -116 -253 -134 -29 -17 -55 -31
-58 -31 -3 0 -30 -16 -60 -35 -30 -19 -56 -35 -59 -35 -16 0 -448 -283 -610
-399 -171 -122 -436 -332 -551 -436 -6 -5 -39 -35 -74 -65 -384 -335 -792
-781 -1117 -1220 -120 -163 -355 -508 -383 -565 -3 -5 -37 -64 -76 -130 -289
-485 -564 -1104 -730 -1640 -15 -49 -29 -94 -30 -100 -2 -5 -19 -65 -39 -133
-29 -100 -69 -255 -90 -352 -2 -8 -10 -46 -19 -85 -9 -38 -18 -81 -20 -95 -3
-14 -14 -70 -25 -125 -11 -55 -22 -118 -25 -140 -4 -23 -8 -52 -11 -65 -4 -22
-7 -43 -21 -140 -3 -19 -7 -46 -9 -60 -2 -14 -7 -52 -11 -85 -3 -33 -8 -67 -9
-76 -2 -9 -7 -52 -11 -95 -3 -43 -8 -92 -9 -109 -2 -16 -6 -73 -10 -125 -4
-52 -8 -115 -11 -140 -3 -38 -7 -359 -5 -428 l1 -22 1012 2 1012 3 2 105 c2
110 12 330 19 390 2 19 6 66 10 103 3 37 8 77 10 87 2 10 6 45 10 77 3 32 8
69 10 83 8 50 37 225 41 245 2 11 7 36 10 55 14 77 78 349 99 420 111 370 202
619 316 868 16 34 28 63 28 65 0 7 162 317 208 397 31 52 64 110 75 128 139
244 400 600 642 877 84 96 415 427 509 509 420 365 833 642 1296 870 210 103
307 145 511 223 223 85 435 152 680 213 135 34 385 85 465 95 28 4 57 8 65 10
8 2 38 7 65 10 28 4 61 8 75 11 14 2 54 6 90 9 36 3 76 8 90 10 14 2 69 7 124
11 350 23 713 19 1004 -11 211 -23 275 -32 467 -64 134 -23 124 -21 255 -51
245 -54 696 -189 805 -240 11 -6 49 -21 85 -34 215 -80 589 -264 841 -416 148
-89 446 -286 469 -310 3 -3 40 -32 83 -64 294 -219 685 -590 928 -880 13 -16
29 -34 34 -40 50 -55 248 -318 325 -431 30 -44 58 -81 62 -83 4 -2 8 -8 8 -14
0 -5 13 -28 29 -51 70 -104 269 -452 323 -567 9 -19 40 -84 68 -145 132 -280
283 -699 355 -985 34 -135 67 -284 81 -360 2 -14 8 -45 14 -70 5 -25 14 -79
20 -120 7 -41 13 -86 16 -100 6 -41 23 -180 30 -255 3 -38 8 -86 10 -105 6
-67 16 -285 18 -380 l1 -95 -952 -1 c-524 -1 -959 -4 -968 -7 -12 -5 -14 -28
-10 -139 4 -123 11 -228 20 -288 2 -14 7 -52 10 -85 8 -75 49 -298 70 -385 9
-36 17 -72 19 -80 118 -487 380 -1024 703 -1440 150 -194 432 -485 615 -633
125 -102 352 -267 367 -267 5 0 11 -4 13 -8 6 -16 273 -166 421 -237 248 -120
470 -200 737 -269 201 -51 264 -63 545 -101 103 -13 375 -26 376 -17 4 23 3
1975 -1 1980 -3 4 -25 7 -50 8 -57 1 -196 12 -235 19 -241 43 -364 81 -550
169 -349 166 -640 429 -848 766 -117 191 -229 498 -253 695 -4 28 -8 52 -9 55
-3 6 -17 173 -19 225 l-1 30 985 3 985 2 -1 518 c-1 284 -4 531 -7 547 -3 17
-8 50 -11 75 -3 25 -8 56 -11 70 -3 14 -8 45 -11 69 -3 24 -10 67 -15 95 -6
28 -13 65 -16 81 -4 28 -70 343 -78 375 -12 50 -38 153 -51 200 -8 30 -16 64
-19 75 -7 28 -30 106 -83 275 -156 505 -389 1042 -661 1525 -30 53 -43 75 -88
150 -47 80 -236 377 -254 399 -5 6 -57 79 -115 161 -95 134 -190 261 -204 275
-3 3 -21 25 -40 50 -19 25 -37 47 -40 50 -3 3 -25 30 -50 60 -197 243 -558
619 -811 845 -486 434 -981 782 -1554 1092 -159 86 -471 237 -595 288 -36 14
-83 34 -105 44 -161 73 -694 260 -845 296 -8 2 -46 13 -85 25 -79 23 -334 86
-385 95 -18 3 -36 7 -39 9 -3 2 -70 16 -148 31 -79 14 -153 28 -165 31 -23 4
-57 10 -113 19 -16 3 -55 7 -85 11 -30 3 -57 7 -60 9 -3 2 -30 6 -60 9 -30 4
-86 11 -125 16 -38 5 -97 11 -130 14 -33 3 -88 8 -122 12 -167 16 -835 38
-846 28z"/>
<path d="M7689 11885 c-2 -1 -39 -6 -82 -10 -43 -3 -86 -8 -95 -10 -9 -1 -44
-6 -77 -10 -93 -11 -155 -22 -185 -30 -8 -2 -37 -7 -65 -11 -27 -3 -58 -10
-67 -15 -10 -6 -18 -8 -18 -5 0 2 -51 -9 -112 -25 -62 -17 -121 -32 -131 -34
-50 -11 -326 -109 -428 -153 -408 -175 -735 -380 -1079 -677 -123 -106 -377
-368 -440 -454 -14 -19 -32 -41 -41 -50 -18 -19 -141 -186 -184 -251 -17 -25
-33 -46 -37 -48 -5 -2 -8 -8 -8 -13 0 -4 -20 -39 -44 -76 -138 -215 -286 -530
-380 -803 -42 -125 -118 -403 -131 -482 -3 -18 -10 -55 -15 -83 -19 -99 -23
-125 -40 -270 -10 -90 -19 -222 -24 -365 l-3 -75 -949 -2 c-522 -1 -956 -2
-964 -2 -11 -1 -17 -13 -18 -38 -8 -144 -14 -205 -22 -253 -5 -30 -12 -68 -15
-85 -36 -211 -152 -500 -282 -698 -60 -90 -49 -75 -141 -187 -178 -214 -391
-380 -647 -505 -273 -132 -537 -196 -822 -199 -92 -1 -93 -1 -94 -26 0 -33 0
-1918 1 -1948 l0 -22 133 5 c72 3 152 7 177 10 25 2 75 6 111 10 36 3 76 7 90
10 13 2 41 6 62 9 88 14 116 18 187 32 41 8 84 17 95 19 11 3 29 7 40 9 88 18
281 74 415 121 462 162 918 427 1286 746 122 107 383 379 485 506 230 287 435
628 559 928 18 44 39 94 46 110 58 132 176 537 198 681 7 45 17 100 23 129 2
11 6 36 8 55 3 19 7 46 10 60 2 14 7 52 10 85 3 33 8 89 11 125 3 36 7 115 9
175 2 61 4 116 4 123 1 10 203 12 994 10 l992 -3 -1 -80 c-1 -101 -14 -360
-19 -400 -4 -31 -12 -107 -21 -205 -3 -30 -9 -80 -14 -110 -5 -30 -12 -75 -15
-100 -25 -189 -109 -564 -172 -770 -15 -47 -28 -89 -29 -95 -2 -11 -39 -121
-78 -231 -116 -334 -311 -738 -520 -1079 -493 -807 -1210 -1513 -2026 -1995
-177 -105 -512 -275 -680 -344 -63 -27 -128 -54 -145 -61 -113 -49 -514 -182
-665 -220 -153 -39 -443 -100 -520 -111 -19 -2 -60 -9 -90 -14 -30 -5 -73 -11
-95 -14 -176 -22 -231 -28 -400 -42 -38 -3 -155 -7 -258 -9 -104 -2 -191 -6
-194 -8 -4 -4 -7 -1853 -4 -2006 l1 -23 217 6 c120 4 245 8 278 11 100 7 207
16 265 22 30 3 71 6 90 8 34 3 180 21 250 31 47 7 329 53 360 59 14 3 38 8 54
11 187 34 541 121 756 186 197 59 565 187 655 227 11 5 92 40 180 76 254 107
803 381 813 407 2 4 8 8 13 8 4 0 43 21 86 46 43 26 93 55 112 66 19 11 44 26
55 33 12 8 106 71 210 140 156 104 390 272 472 338 10 9 73 59 139 113 203
165 371 318 600 548 234 235 238 239 415 446 290 339 574 734 789 1100 34 58
66 112 71 120 6 8 13 22 17 30 3 8 23 44 43 80 104 182 257 498 370 765 97
231 288 782 314 906 3 13 17 67 31 119 27 99 83 341 109 470 29 144 57 312 77
460 6 41 12 86 14 100 2 14 6 54 10 90 4 36 8 76 10 90 9 60 19 197 30 405 3
77 9 142 11 144 2 2 4 -31 5 -75 1 -43 2 -95 4 -114 7 -105 17 -239 20 -265 2
-16 6 -62 10 -101 3 -39 7 -80 10 -92 2 -11 7 -52 10 -89 4 -37 8 -75 10 -83
2 -8 7 -35 10 -60 8 -55 33 -216 40 -250 3 -14 9 -47 15 -75 5 -27 12 -63 15
-80 12 -69 17 -94 36 -175 22 -93 25 -104 40 -170 60 -265 179 -643 308 -977
103 -266 278 -649 394 -858 139 -253 204 -366 259 -451 25 -38 75 -116 112
-173 143 -221 343 -491 534 -719 58 -70 108 -129 111 -132 3 -3 37 -41 75 -85
107 -122 505 -518 651 -646 208 -182 303 -259 520 -422 127 -95 473 -330 580
-394 216 -129 287 -171 347 -204 153 -84 635 -319 654 -319 3 0 24 -8 47 -19
333 -150 996 -366 1306 -426 9 -2 34 -8 56 -13 22 -6 51 -13 65 -16 14 -2 59
-11 100 -19 81 -17 103 -21 165 -32 22 -3 60 -10 85 -15 25 -5 63 -12 85 -15
22 -3 70 -10 108 -15 37 -6 89 -12 115 -15 26 -3 58 -8 72 -10 44 -7 222 -24
320 -30 52 -4 113 -8 135 -11 22 -2 128 -6 235 -10 l195 -6 0 1016 0 1016 -25
1 c-14 0 -83 2 -155 4 -134 4 -301 13 -345 20 -14 2 -56 6 -95 10 -38 3 -101
10 -140 16 -38 5 -88 12 -110 14 -22 3 -51 8 -65 10 -14 3 -41 7 -60 10 -165
27 -457 95 -645 150 -66 20 -127 37 -135 39 -91 23 -473 168 -598 227 -35 16
-65 29 -68 29 -8 0 -356 175 -413 207 -665 380 -1212 834 -1681 1398 -495 594
-885 1321 -1106 2059 -47 157 -111 405 -120 466 -3 19 -9 51 -14 70 -5 19 -12
55 -15 80 -3 25 -8 52 -10 60 -4 14 -8 39 -20 113 -3 17 -7 43 -10 57 -2 14
-7 50 -10 80 -4 30 -8 66 -10 80 -2 14 -7 59 -10 100 -3 41 -8 86 -10 100 -11
71 -25 456 -17 478 3 9 211 12 996 12 l991 0 -1 63 c-2 83 -14 300 -19 329 -2
13 -6 50 -10 83 -7 72 -54 355 -60 365 -2 4 -6 20 -9 36 -15 83 -92 353 -123
434 -3 8 -7 20 -9 25 -26 100 -195 467 -293 635 -107 184 -288 443 -401 574
-267 312 -530 546 -854 761 -173 115 -206 133 -427 244 -193 96 -325 151 -524
216 -112 37 -365 105 -445 119 -14 2 -41 7 -60 11 -52 9 -70 12 -130 21 -30 4
-57 9 -60 9 -3 1 -36 5 -75 9 -38 4 -83 10 -100 13 -33 6 -631 14 -636 8z
m556 -2005 c108 -16 322 -72 423 -110 646 -248 1121 -828 1236 -1512 16 -91
20 -138 27 -268 l3 -55 -976 -1 c-537 -1 -981 -5 -987 -9 -6 -3 -11 -3 -11 2
0 4 -441 7 -980 6 -766 -2 -980 0 -981 10 -4 40 6 202 16 262 19 114 21 124
45 219 70 268 207 539 380 751 311 379 760 635 1230 701 25 4 68 10 95 14 74
10 388 4 480 -10z"/>
</g>
</svg>
